/* XPM */
static char * out_sceneInfo_xpm[] = {
"20 20 2 1",
" 	c None",
".	c #2C9421",
"                    ",
"                    ",
"                    ",
"         ..         ",
"         ..         ",
"                    ",
"                    ",
"         ..         ",
"         ..         ",
"         ..         ",
"         ..         ",
"         ..         ",
"         ..         ",
"         ..         ",
"         ..         ",
"         ..         ",
"         ..         ",
"                    ",
"                    ",
"                    "};
